
<svg width="24" height="24" viewBox="0 0 24 24" fill="none" xmlns="http://www.w3.org/2000/svg">
<path fill-rule="evenodd" clip-rule="evenodd" d="M6.40105 18.8627C6.84705 18.5302 6.93645 17.9004 6.60295 17.4564C4.20819 14.263 4.20819 9.80096 6.60295 6.60761C6.73756 6.4268 6.80386 6.21585 6.80386 6.00591C6.80386 5.69953 6.66523 5.39817 6.40105 5.20129C5.95806 4.86779 5.32822 4.9582 4.99573 5.40219C2.06757 9.30473 2.06858 14.7572 4.99573 18.6618C5.32822 19.1058 5.95806 19.1952 6.40105 18.8627ZM8.00829 15.6477C8.34078 16.0917 8.97061 16.1821 9.41461 15.8496C9.8586 15.5161 9.948 14.8862 9.61752 14.4432C8.55374 13.0239 8.55374 11.041 9.61752 9.62058C9.75112 9.43976 9.81742 9.22781 9.81742 9.01887C9.81742 8.7135 9.67779 8.41215 9.41461 8.21426C8.97061 7.88176 8.34078 7.97116 8.00829 8.41616C6.41513 10.5457 6.41513 13.5191 8.00829 15.6477ZM11.9929 13.0364C11.4384 13.0364 10.9884 12.5864 10.9884 12.0319C10.9884 11.4764 11.4384 11.0274 11.9929 11.0274C12.5484 11.0274 12.9974 11.4764 12.9974 12.0319C12.9974 12.5864 12.5484 13.0364 11.9929 13.0364Z" fill="#ff4747"/>
<path fill-rule="evenodd" clip-rule="evenodd" d="M17.624 5.20104C17.178 5.53353 17.0886 6.16336 17.4221 6.60736C19.8168 9.80071 19.8168 14.2628 17.4221 17.4561C17.2875 17.6369 17.2212 17.8479 17.2212 18.0578C17.2212 18.3642 17.3598 18.6655 17.624 18.8624C18.067 19.1959 18.6968 19.1055 19.0293 18.6615C21.9575 14.759 21.9564 9.30649 19.0293 5.40194C18.6968 4.95794 18.067 4.86854 17.624 5.20104ZM16.0167 8.41599C15.6842 7.97199 15.0544 7.88159 14.6104 8.21408C14.1664 8.54758 14.077 9.17741 14.4075 9.6204C15.4713 11.0398 15.4713 13.0227 14.4075 14.4431C14.2739 14.6239 14.2076 14.8358 14.2076 15.0448C14.2076 15.3502 14.3472 15.6515 14.6104 15.8494C15.0544 16.1819 15.6842 16.0925 16.0167 15.6475C17.6099 13.5179 17.6099 10.5446 16.0167 8.41599ZM12.0321 11.0272C12.5866 11.0272 13.0366 11.4773 13.0366 12.0317C13.0366 12.5872 12.5866 13.0363 12.0321 13.0363C11.4766 13.0363 11.0276 12.5872 11.0276 12.0317C11.0276 11.4773 11.4766 11.0272 12.0321 11.0272Z" fill="#ff4747"/>
</svg>
