
<?xml version="1.0" encoding="UTF-8" standalone="no"?>
<!DOCTYPE svg PUBLIC "-//W3C//DTD SVG 1.1//EN" "http://www.w3.org/Graphics/SVG/1.1/DTD/svg11.dtd">
<svg width="100%" height="100%" viewBox="0 0 24 24" version="1.1" xmlns="http://www.w3.org/2000/svg" xmlns:xlink="http://www.w3.org/1999/xlink" xml:space="preserve" xmlns:serif="http://www.serif.com/" style="fill-rule:evenodd;clip-rule:evenodd;stroke-linejoin:round;stroke-miterlimit:1.41421;fill:#ff4747;">
    <path d="M18.793,19.207C18.529,19.471 18.264,19.736 18,20C16,22 11.104,21 7,17C2.896,13 2,8 4,6C4.264,5.736 4.529,5.471 4.793,5.207C5.183,4.817 5.817,4.817 6.207,5.207L8.793,7.793C9.183,8.183 9.183,8.817 8.793,9.207C8.529,9.471 8.264,9.736 8,10C7,11 6.915,13 9,15C11.085,17 13,17 14,16C14.264,15.736 14.529,15.471 14.793,15.207C15.183,14.817 15.817,14.817 16.207,15.207L18.793,17.793C19.183,18.183 19.183,18.817 18.793,19.207ZM14,5C13.448,5 13,4.552 13,4C13,3.448 13.448,3 14,3C14.552,3 15,3.448 15,4C15,4.552 14.552,5 14,5ZM17,5C16.448,5 16,4.552 16,4C16,3.448 16.448,3 17,3C17.552,3 18,3.448 18,4C18,4.552 17.552,5 17,5ZM20,5C19.448,5 19,4.552 19,4C19,3.448 19.448,3 20,3C20.552,3 21,3.448 21,4C21,4.552 20.552,5 20,5ZM14,8C13.448,8 13,7.552 13,7C13,6.448 13.448,6 14,6C14.552,6 15,6.448 15,7C15,7.552 14.552,8 14,8ZM17,8C16.448,8 16,7.552 16,7C16,6.448 16.448,6 17,6C17.552,6 18,6.448 18,7C18,7.552 17.552,8 17,8ZM20,8C19.448,8 19,7.552 19,7C19,6.448 19.448,6 20,6C20.552,6 21,6.448 21,7C21,7.552 20.552,8 20,8ZM14,11C13.448,11 13,10.552 13,10C13,9.448 13.448,9 14,9C14.552,9 15,9.448 15,10C15,10.552 14.552,11 14,11ZM17,11C16.448,11 16,10.552 16,10C16,9.448 16.448,9 17,9C17.552,9 18,9.448 18,10C18,10.552 17.552,11 17,11ZM20,11C19.448,11 19,10.552 19,10C19,9.448 19.448,9 20,9C20.552,9 21,9.448 21,10C21,10.552 20.552,11 20,11Z"/>
</svg>
