<svg width="100%" height="100%" viewBox="0 0 24 24" version="1.1" xmlns="http://www.w3.org/2000/svg" xmlns:xlink="http://www.w3.org/1999/xlink" xml:space="preserve" xmlns:serif="http://www.serif.com/" style="fill-rule:evenodd;clip-rule:evenodd;stroke-linejoin:round;stroke-miterlimit:1.41421;fill:#ff4747;">
    <path d="M11,12L11,4C11,3.448 11.448,3 12,3C12.552,3 13,3.448 13,4L13,12L15.004,12C15.556,12 16.004,12.448 16.004,13C16.004,13.265 15.899,13.519 15.711,13.707L12.723,16.698C12.332,17.089 11.699,17.089 11.308,16.699C11.308,16.699 11.308,16.699 11.308,16.698L8.319,13.707C7.929,13.316 7.929,12.683 8.32,12.293C8.507,12.105 8.762,12 9.027,12L11,12ZM5,19L19,19C19.552,19 20,19.448 20,20C20,20.552 19.552,21 19,21L5,21C4.448,21 4,20.552 4,20C4,19.448 4.448,19 5,19Z"/>
</svg>
