<svg width="24px" height="24px" viewBox="0 0 24 24" version="1.1" xmlns="http://www.w3.org/2000/svg" xmlns:xlink="http://www.w3.org/1999/xlink">
    <defs>
        <path d="M9,0 C13.9705627,0 18,4.02943725 18,9 C18,13.9705627 13.9705627,18 9,18 C4.02943725,18 0,13.9705627 0,9 C0,4.02943725 4.02943725,0 9,0 Z M9,2 C5.13400675,2 2,5.13400675 2,9 C2,12.8659932 5.13400675,16 9,16 C12.8659932,16 16,12.8659932 16,9 C16,5.13400675 12.8659932,2 9,2 Z M12,11 C12.5522847,11 13,11.4477153 13,12 C13,12.3045263 12.8638789,12.5772599 12.6491626,12.7606747 L12.6494446,12.7612152 L12.6358347,12.7718616 C12.6009609,12.8006225 12.5641046,12.8270657 12.5255016,12.8509554 C12.4393222,12.9125847 12.3710848,12.9601051 12.3199646,12.9939915 C11.3082043,13.6646638 10.2015494,14 9,14 C7.71788715,14 6.54389129,13.6181879 5.47801242,12.8545638 C5.43797594,12.8285943 5.39947437,12.8010617 5.36313308,12.7710092 C5.35936544,12.7676532 5.35507398,12.7644373 5.3507843,12.7612152 C5.13612113,12.5772599 5,12.3045263 5,12 C5,11.4477153 5.44771525,11 6,11 C6.23909889,11 6.45859877,11.0839133 6.63065625,11.2238966 L6.56971741,11.1802673 C7.29000346,11.7267558 8.10009766,12 9,12 C9.87637279,12 10.6674132,11.7408579 11.3731213,11.2225737 C11.5440518,11.0829033 11.7623444,11 12,11 Z M6.5,5.5 C7.32842712,5.5 8,6.17157288 8,7 C8,7.82842712 7.32842712,8.5 6.5,8.5 C5.67157288,8.5 5,7.82842712 5,7 C5,6.17157288 5.67157288,5.5 6.5,5.5 Z M11.5,5.5 C12.3284271,5.5 13,6.17157288 13,7 C13,7.82842712 12.3284271,8.5 11.5,8.5 C10.6715729,8.5 10,7.82842712 10,7 C10,6.17157288 10.6715729,5.5 11.5,5.5 Z" id="path-1"></path>
    </defs>
    <g id="Giphy" stroke="none" stroke-width="1" fill="none" fill-rule="evenodd">
        <g id="Giphy---Assets" transform="translate(-513.000000, -420.000000)">
            <g id="Emoji_White" transform="translate(516.000000, 423.000000)">
                <mask id="mask-2" fill="black">
                    <use xlink:href="#path-1"></use>
                </mask>
                <use id="Combined-Shape" fill="#fff" xlink:href="#path-1"></use>
            </g>
        </g>
    </g>
</svg>