<svg width="24px" height="24px" viewBox="0 0 24 24" version="1.1" xmlns="http://www.w3.org/2000/svg" xmlns:xlink="http://www.w3.org/1999/xlink">
    <g id="Giphy" stroke="none" stroke-width="1" fill="none" fill-rule="evenodd">
        <g id="Giphy---Assets" transform="translate(-553.000000, -420.000000)" fill="#ff4747">
            <g id="gallery" transform="translate(556.000000, 422.000000)">
                <path d="M15.4361148,1.03584031e-16 C16.3276335,-6.01853049e-17 16.6509198,0.0928256111 16.9768457,0.267132704 C17.3027716,0.441439796 17.5585602,0.697228371 17.7328673,1.0231543 C17.9071744,1.34908022 18,1.67236646 18,2.5638852 L18,17.4361148 C18,18.3276335 17.9071744,18.6509198 17.7328673,18.9768457 C17.5585602,19.3027716 17.3027716,19.5585602 16.9768457,19.7328673 C16.6509198,19.9071744 16.3276335,20 15.4361148,20 L2.5638852,20 C1.67236646,20 1.34908022,19.9071744 1.0231543,19.7328673 C0.697228371,19.5585602 0.441439796,19.3027716 0.267132704,18.9768457 C0.0928256111,18.6509198 4.01235366e-17,18.3276335 -6.90560205e-17,17.4361148 L6.90560205e-17,2.5638852 C-4.01235366e-17,1.67236646 0.0928256111,1.34908022 0.267132704,1.0231543 C0.441439796,0.697228371 0.697228371,0.441439796 1.0231543,0.267132704 C1.34908022,0.0928256111 1.67236646,6.01853049e-17 2.5638852,-1.03584031e-16 L15.4361148,1.03584031e-16 Z M16,2 L2,2 L2,18 L8.293748,11.2566986 C8.67058196,10.8529479 9.30337084,10.8311276 9.70712151,11.2079616 L11.5,13 L16,8 L16,2 Z M6,4 C7.1045695,4 8,4.8954305 8,6 C8,7.1045695 7.1045695,8 6,8 C4.8954305,8 4,7.1045695 4,6 C4,4.8954305 4.8954305,4 6,4 Z" id="Combined-Shape"></path>
            </g>
        </g>
    </g>
</svg>