<svg width="24px" height="24px" viewBox="0 0 24 24" version="1.1" xmlns="http://www.w3.org/2000/svg" xmlns:xlink="http://www.w3.org/1999/xlink">
    <g id="Giphy" stroke="none" stroke-width="1" fill="none" fill-rule="evenodd">
        <g id="Giphy---Assets" transform="translate(-473.000000, -420.000000)">
            <g id="GIF_White" transform="translate(475.000000, 423.000000)">
                <path d="M3,0 L17,0 C18.6568542,-3.04359188e-16 20,1.34314575 20,3 L20,15 C20,16.6568542 18.6568542,18 17,18 L3,18 C1.34314575,18 2.02906125e-16,16.6568542 0,15 L0,3 C-2.02906125e-16,1.34314575 1.34314575,-1.39730022e-16 3,0 Z" id="Rectangle" fill="#ff4747"></path>
                <path d="M8.93164062,9.7109375 L8.93164062,8.99609375 L6.56445312,8.99609375 L6.56445312,9.85546875 L7.78710938,9.85546875 L7.78320312,9.9609375 C7.75976562,10.6640625 7.22460938,11.1367188 6.45117188,11.1367188 C5.52148438,11.1367188 4.93554688,10.390625 4.93554688,9.1640625 C4.93554688,7.9609375 5.49414062,7.22265625 6.40429688,7.22265625 C7.06054688,7.22265625 7.53320312,7.55859375 7.70898438,8.1484375 L8.88085938,8.1484375 C8.71679688,6.98046875 7.73632812,6.21875 6.40429688,6.21875 C4.76367188,6.21875 3.72851562,7.36328125 3.72851562,9.17578125 C3.72851562,11.015625 4.75585938,12.1445312 6.43164062,12.1445312 C7.97070312,12.1445312 8.93164062,11.2070312 8.93164062,9.7109375 Z M11.2402344,12 L11.2402344,6.36328125 L10.0605469,6.36328125 L10.0605469,12 L11.2402344,12 Z M13.7871094,12 L12.6074219,12 L12.6074219,6.36328125 L16.2988281,6.36328125 L16.2988281,7.3359375 L13.7871094,7.3359375 L13.7871094,8.84765625 L16.0800781,8.84765625 L16.0800781,9.78125 L13.7871094,9.78125 L13.7871094,12 Z" id="GIF" fill="#FFFFFF" fill-rule="nonzero"></path>
            </g>
        </g>
    </g>
</svg>