<svg width="100%" height="100%" viewBox="0 0 24 24" version="1.1" xmlns="http://www.w3.org/2000/svg" xmlns:xlink="http://www.w3.org/1999/xlink" xml:space="preserve" xmlns:serif="http://www.serif.com/" style="fill-rule:evenodd;clip-rule:evenodd;stroke-linejoin:round;stroke-miterlimit:1.41421;fill:#ff4747;">
    <path d="M12,21C7.029,21 3,16.971 3,12C3,7.029 7.029,3 12,3C16.971,3 21,7.029 21,12C21,16.971 16.971,21 12,21ZM12,19C15.866,19 19,15.866 19,12C19,8.134 15.866,5 12,5C8.134,5 5,8.134 5,12C5,15.866 8.134,19 12,19ZM12,17C11.448,17 11,16.552 11,16C11,15.448 11.448,15 12,15C12.552,15 13,15.448 13,16C13,16.552 12.552,17 12,17ZM11.24,14.197C11.245,13.869 11.268,13.589 11.309,13.356C11.35,13.124 11.416,12.912 11.507,12.721C11.598,12.529 11.718,12.344 11.866,12.164C12.014,11.984 12.197,11.782 12.416,11.559C12.571,11.399 12.72,11.248 12.864,11.104C13.008,10.96 13.133,10.812 13.24,10.66C13.347,10.507 13.432,10.342 13.496,10.164C13.56,9.986 13.592,9.781 13.592,9.549C13.592,9.07 13.467,8.695 13.216,8.424C12.965,8.153 12.601,8.018 12.122,8.018C11.922,8.018 11.729,8.044 11.545,8.096C11.36,8.149 11.196,8.231 11.052,8.342C10.909,8.454 10.794,8.595 10.707,8.766C10.621,8.937 10.577,9.141 10.577,9.378L9.313,9.378C9.317,8.991 9.392,8.644 9.538,8.339C9.684,8.034 9.882,7.775 10.133,7.563C10.384,7.351 10.679,7.189 11.018,7.078C11.358,6.966 11.726,6.91 12.122,6.91C12.56,6.91 12.948,6.971 13.288,7.091C13.627,7.212 13.913,7.385 14.146,7.611C14.378,7.836 14.555,8.11 14.675,8.431C14.796,8.752 14.857,9.111 14.857,9.508C14.857,9.818 14.809,10.107 14.713,10.376C14.617,10.645 14.489,10.901 14.327,11.145C14.165,11.389 13.982,11.619 13.777,11.835C13.571,12.052 13.36,12.263 13.141,12.468C12.89,12.7 12.722,12.962 12.635,13.254C12.548,13.546 12.505,13.86 12.505,14.197L11.24,14.197Z"/>
</svg>
