
<?xml version="1.0" encoding="UTF-8" standalone="no"?>
<!DOCTYPE svg PUBLIC "-//W3C//DTD SVG 1.1//EN" "http://www.w3.org/Graphics/SVG/1.1/DTD/svg11.dtd">
<svg width="100%" height="100%" viewBox="0 0 24 24" version="1.1" xmlns="http://www.w3.org/2000/svg" xmlns:xlink="http://www.w3.org/1999/xlink" xml:space="preserve" xmlns:serif="http://www.serif.com/" style="fill-rule:evenodd;clip-rule:evenodd;stroke-linejoin:round;stroke-miterlimit:1.41421;fill:#ff4747">
    <path d="M12,8C10.895,8 10,7.105 10,6C10,4.895 10.895,4 12,4C13.105,4 14,4.895 14,6C14,7.105 13.105,8 12,8ZM12,14C10.895,14 10,13.105 10,12C10,10.895 10.895,10 12,10C13.105,10 14,10.895 14,12C14,13.105 13.105,14 12,14ZM12,20C10.895,20 10,19.105 10,18C10,16.895 10.895,16 12,16C13.105,16 14,16.895 14,18C14,19.105 13.105,20 12,20Z"/>
</svg>
