<svg width="100%" height="100%" viewBox="0 0 24 24" version="1.1" xmlns="http://www.w3.org/2000/svg" xmlns:xlink="http://www.w3.org/1999/xlink" xml:space="preserve" xmlns:serif="http://www.serif.com/" style="fill-rule:evenodd;clip-rule:evenodd;stroke-linejoin:round;stroke-miterlimit:1.41421;fill:#ff4747;">
    <path d="M8.042,11L13.042,11C13.594,11 14.042,11.448 14.042,12C14.042,12.552 13.594,13 13.042,13L8.042,13L8.042,15.002C8.042,15.265 7.938,15.517 7.754,15.704C7.366,16.097 6.733,16.102 6.34,15.714L3.298,12.716C3.293,12.712 3.288,12.707 3.284,12.702C2.898,12.306 2.907,11.673 3.302,11.288L6.344,8.324C6.53,8.142 6.781,8.04 7.042,8.04C7.594,8.04 8.042,8.488 8.042,9.04L8.042,11ZM14,3C14,2.448 14.448,2 15,2L19,2C19.552,2 20,2.448 20,3L20,21C20,21.552 19.552,22 19,22L15,22C14.448,22 14,21.552 14,21C14,20.448 14.448,20 15,20L18,20L18,4L15,4C14.448,4 14,3.552 14,3Z"/>
</svg>
