
<svg width="56" height="56" viewBox="0 0 56 56" fill="none" xmlns="http://www.w3.org/2000/svg">
    <path fill-rule="evenodd" clip-rule="evenodd" d="M37.0787 21.1126C38.4541 21.1126 39.688 22.013 40.1867 23.38C40.9979 25.6056 43.0077 27.0721 45.2474 27.0721L53.0827 27.0721C53.5892 27.0721 54 27.5075 54 28.0445C54 36.8784 47.538 43.5792 39.5674 43.5792H34.149L33.7705 43.58C30.2983 43.5964 26.7624 43.8899 22.6731 47.2771C20.4834 49.0908 18.5667 50.1595 16.9235 50.4831C16.4154 50.5831 15.9277 50.2278 15.833 49.6897C15.8112 49.5644 15.8122 49.4365 15.8362 49.3118C16.5314 45.6692 15.989 43.6958 14.2091 43.3905C7.29412 42.2057 2 36.0403 2 28.0445C2 27.5075 2.4108 27.0721 2.9178 27.0721L10.6258 27.0721C12.8654 27.0721 14.8747 25.6056 15.6864 23.38C16.1851 22.013 17.419 21.1126 18.7939 21.1126L37.0787 21.1126ZM52.3944 15.5822C52.5498 16.2414 52.3659 16.6132 51.8428 16.6987L44.3369 17.4066C42.9773 17.5349 41.683 16.7431 41.0786 15.4128C40.094 13.2464 37.9871 11.9572 35.7729 12.1661L17.693 13.8704C15.4788 14.0787 13.6117 15.7429 12.9912 18.0604C12.6105 19.4832 11.4638 20.505 10.1037 20.6333L3.28047 21.2762C3.22919 21.2773 3.16134 21.2811 3.0764 21.2881C2.26532 21.3563 1.91261 21.0164 2.01827 20.2685C3.13907 13.3281 8.25209 7.83057 14.7998 7.21305L37.6748 5.0569C44.2411 4.43831 50.1782 8.92325 52.3944 15.5822Z" fill="#ff4747"/>
</svg>
