
<svg xmlns="http://www.w3.org/2000/svg" xmlns:xlink="http://www.w3.org/1999/xlink" xmlns:serif="http://www.serif.com/" width="18" height="18" version="1.1" xml:space="preserve" style="fill-rule: evenodd; clip-rule: evenodd; stroke-linejoin: round; stroke-miterlimit: 1.41421;fill:#ff4747;"><rect id="backgroundrect" width="100%" height="100%" x="0" y="0" fill="none" stroke="none"/>
    
<g class="currentLayer" style=""><title>Layer 1</title><path d="M16.696982215921736,15.1982256271991 C16.447156002561904,15.451579815164493 16.19638347778783,15.705893678084301 15.946557264427996,15.959247866049694 C14.053934435944415,17.87859777487843 9.420793751816609,16.91892282046406 5.537131707768297,13.080223002806589 C1.653469663719989,9.241523185149118 0.8055746365593452,4.44314841307728 2.6981974650429255,2.5237985042485453 C2.948023678402758,2.270444316283153 3.1987962031768324,2.0161304533633446 3.448622416536666,1.7627762653979526 C3.8176838680909637,1.3885030331763488 4.41764530472026,1.3885030331763488 4.786706756274558,1.7627762653979526 L7.23386807350383,4.244495697513506 C7.602929525058128,4.6187689297351096 7.602929525058128,5.2272028508338195 7.23386807350383,5.601476083055422 C6.984041860143996,5.854830271020816 6.733269335369921,6.1091441339406245 6.4834431220100885,6.362498321906016 C5.537131707768297,7.322173276320385 5.456695237557746,9.241523185149118 7.429754536251879,11.160873093977854 C9.402813834946015,13.080223002806589 11.215000193219042,13.080223002806589 12.161311607460833,12.120548048392223 C12.411137820820665,11.867193860426829 12.661910345594741,11.612879997507022 12.911736558954573,11.359525809541632 C13.280798010508871,10.985252577320026 13.880759447138168,10.985252577320026 14.249820898692466,11.359525809541632 L16.696982215921736,13.841245241657182 C17.06604366747604,14.215518473878786 17.06604366747604,14.823952394977496 16.696982215921736,15.1982256271991 z" id="svg_1" class="" opacity="1"/></g></svg>