<svg width="100%" height="100%" viewBox="0 0 24 24" version="1.1" xmlns="http://www.w3.org/2000/svg" xmlns:xlink="http://www.w3.org/1999/xlink" xml:space="preserve" xmlns:serif="http://www.serif.com/" style="fill-rule:evenodd;clip-rule:evenodd;stroke-linejoin:round;stroke-miterlimit:1.41421;fill:#ff4747;">
    <g id="Layer-1" serif:id="Layer 1">
        <g transform="matrix(1,0,0,1,20.0039,10.7289)">
            <path d="M0,2.527L-1.929,3.141C-2.202,3.229 -2.426,3.429 -2.541,3.693C-2.714,4.088 -2.926,4.46 -3.17,4.798C-3.338,5.03 -3.397,5.324 -3.335,5.603L-2.895,7.563L-5.089,8.831L-6.559,7.492C-6.772,7.298 -7.052,7.206 -7.345,7.237C-7.763,7.286 -8.203,7.285 -8.653,7.237C-8.94,7.206 -9.225,7.301 -9.437,7.496L-10.898,8.842L-13.093,7.576L-12.673,5.652C-12.611,5.371 -12.674,5.077 -12.845,4.844C-12.978,4.665 -13.105,4.477 -13.218,4.281C-13.33,4.088 -13.427,3.889 -13.516,3.688C-13.632,3.423 -13.857,3.222 -14.133,3.136L-16.008,2.55L-16.008,0.016L-14.114,-0.588C-13.841,-0.675 -13.618,-0.875 -13.502,-1.138C-13.321,-1.552 -13.101,-1.935 -12.849,-2.278C-12.678,-2.511 -12.616,-2.807 -12.68,-3.089L-13.114,-5.021L-10.918,-6.288L-9.435,-4.937C-9.224,-4.745 -8.938,-4.653 -8.657,-4.681C-8.241,-4.726 -7.812,-4.722 -7.379,-4.675C-7.085,-4.646 -6.805,-4.739 -6.592,-4.934L-5.109,-6.3L-2.914,-5.033L-3.345,-3.059C-3.406,-2.78 -3.345,-2.489 -3.178,-2.258C-3.053,-2.087 -2.935,-1.909 -2.827,-1.723C-2.721,-1.537 -2.626,-1.349 -2.541,-1.158C-2.425,-0.894 -2.2,-0.694 -1.925,-0.608L0,-0.008L0,2.527ZM0.596,-1.917L-0.913,-2.388C-0.97,-2.499 -1.03,-2.61 -1.094,-2.721C-1.159,-2.834 -1.229,-2.946 -1.299,-3.055L-0.961,-4.606C-0.774,-5.46 -1.157,-6.327 -1.914,-6.765L-4.109,-8.033C-4.873,-8.473 -5.819,-8.368 -6.465,-7.771L-7.625,-6.701C-7.887,-6.716 -8.148,-6.716 -8.406,-6.705L-9.572,-7.767C-10.217,-8.355 -11.16,-8.458 -11.918,-8.021L-14.114,-6.753C-14.876,-6.313 -15.258,-5.44 -15.065,-4.582L-14.727,-3.076C-14.874,-2.848 -15.01,-2.609 -15.136,-2.361L-16.615,-1.89C-17.448,-1.625 -18.008,-0.859 -18.008,0.016L-18.008,2.55C-18.008,3.43 -17.444,4.198 -16.604,4.459L-15.148,4.914C-15.086,5.037 -15.021,5.159 -14.951,5.281C-14.877,5.408 -14.8,5.531 -14.72,5.652L-15.047,7.148C-15.234,8.004 -14.851,8.872 -14.094,9.307L-11.898,10.575C-11.584,10.756 -11.239,10.844 -10.896,10.844C-10.407,10.844 -9.923,10.664 -9.543,10.313L-8.402,9.262C-8.128,9.275 -7.854,9.275 -7.585,9.262L-6.437,10.309C-5.789,10.9 -4.845,11 -4.089,10.563L-1.895,9.296C-1.133,8.855 -0.75,7.983 -0.942,7.125L-1.289,5.586C-1.151,5.37 -1.024,5.146 -0.907,4.916L0.608,4.432C1.44,4.167 2,3.4 2,2.527L2,-0.008C2,-0.888 1.436,-1.655 0.596,-1.917" style="fill-rule:nonzero;"/>
        </g>
        <g transform="matrix(1,0,0,1,12,10)">
            <path d="M0,4C-1.103,4 -2,3.103 -2,2C-2,0.897 -1.103,0 0,0C1.103,0 2,0.897 2,2C2,3.103 1.103,4 0,4M0,-2C-2.206,-2 -4,-0.206 -4,2C-4,4.206 -2.206,6 0,6C2.206,6 4,4.206 4,2C4,-0.206 2.206,-2 0,-2" style="fill-rule:nonzero;"/>
        </g>
    </g>
</svg>
