<svg width="100%" height="100%" viewBox="0 0 24 24" version="1.1" xmlns="http://www.w3.org/2000/svg" xmlns:xlink="http://www.w3.org/1999/xlink" xml:space="preserve" xmlns:serif="http://www.serif.com/" style="fill-rule:evenodd;clip-rule:evenodd;stroke-linejoin:round;stroke-miterlimit:1.41421;fill:#ff4747;">
    <path d="M18,21L6,21C4.344,21 3,19.656 3,18L3,6C3,4.344 4.344,3 6,3C6,3 10.854,3 13,3C13.552,3 14,3.448 14,4C14,4.552 13.552,5 13,5C10.854,5 6,5 6,5C5.448,5 5,5.448 5,6L5,18C5,18.552 5.448,19 6,19L18,19C18.552,19 19,18.552 19,18C19,18 19,13.146 19,11C19,10.448 19.448,10 20,10C20.552,10 21,10.448 21,11C21,13.146 21,18 21,18C21,19.656 19.656,21 18,21ZM10,14C10,14 10,12.712 10,11.824C10,11.296 10.209,10.79 10.581,10.415C12.167,8.818 16.567,4.386 18.293,2.648C18.48,2.459 18.735,2.353 19.001,2.352C19.267,2.352 19.522,2.457 19.71,2.645C20.204,3.14 20.86,3.796 21.355,4.29C21.543,4.478 21.648,4.733 21.648,4.999C21.647,5.265 21.541,5.52 21.352,5.707C19.614,7.433 15.182,11.833 13.585,13.419C13.21,13.791 12.704,14 12.176,14C11.288,14 10,14 10,14Z"/>
</svg>
